<mxfile host="app.diagrams.net" modified="2023-10-18T08:31:30.339Z" agent="Mozilla/5.0 (Macintosh; Intel Mac OS X 10_15_7) AppleWebKit/537.36 (KHTML, like Gecko) Chrome/118.0.0.0 Safari/537.36" etag="fHSS5i0Cz2KX-9WS7_Sz" version="22.0.4" type="github">
  <diagram id="C5RBs43oDa-KdzZeNtuy" name="Page-1">
    <mxGraphModel dx="2180" dy="797" grid="1" gridSize="10" guides="1" tooltips="1" connect="1" arrows="1" fold="1" page="1" pageScale="1" pageWidth="827" pageHeight="1169" math="0" shadow="0">
      <root>
        <mxCell id="WIyWlLk6GJQsqaUBKTNV-0" />
        <mxCell id="WIyWlLk6GJQsqaUBKTNV-1" parent="WIyWlLk6GJQsqaUBKTNV-0" />
        <mxCell id="WIyWlLk6GJQsqaUBKTNV-4" value="Yes" style="rounded=0;html=1;jettySize=auto;orthogonalLoop=1;fontSize=11;endArrow=block;endFill=0;endSize=8;strokeWidth=1;shadow=0;labelBackgroundColor=none;edgeStyle=orthogonalEdgeStyle;" parent="WIyWlLk6GJQsqaUBKTNV-1" edge="1">
          <mxGeometry y="20" relative="1" as="geometry">
            <mxPoint as="offset" />
            <mxPoint x="220" y="290" as="targetPoint" />
          </mxGeometry>
        </mxCell>
        <mxCell id="WIyWlLk6GJQsqaUBKTNV-8" value="No" style="rounded=0;html=1;jettySize=auto;orthogonalLoop=1;fontSize=11;endArrow=block;endFill=0;endSize=8;strokeWidth=1;shadow=0;labelBackgroundColor=none;edgeStyle=orthogonalEdgeStyle;" parent="WIyWlLk6GJQsqaUBKTNV-1" edge="1">
          <mxGeometry x="0.3333" y="20" relative="1" as="geometry">
            <mxPoint as="offset" />
            <mxPoint x="220" y="370" as="sourcePoint" />
          </mxGeometry>
        </mxCell>
        <mxCell id="WIyWlLk6GJQsqaUBKTNV-9" value="Yes" style="edgeStyle=orthogonalEdgeStyle;rounded=0;html=1;jettySize=auto;orthogonalLoop=1;fontSize=11;endArrow=block;endFill=0;endSize=8;strokeWidth=1;shadow=0;labelBackgroundColor=none;" parent="WIyWlLk6GJQsqaUBKTNV-1" edge="1">
          <mxGeometry y="10" relative="1" as="geometry">
            <mxPoint as="offset" />
            <mxPoint x="270" y="330" as="sourcePoint" />
          </mxGeometry>
        </mxCell>
        <mxCell id="HpH3oTEGi0dOJ8DHY_Ye-0" value="git Flow" style="rounded=0;whiteSpace=wrap;html=1;" parent="WIyWlLk6GJQsqaUBKTNV-1" vertex="1">
          <mxGeometry x="40" width="120" height="60" as="geometry" />
        </mxCell>
        <mxCell id="HpH3oTEGi0dOJ8DHY_Ye-1" value="App Build" style="rounded=0;whiteSpace=wrap;html=1;" parent="WIyWlLk6GJQsqaUBKTNV-1" vertex="1">
          <mxGeometry x="260" width="120" height="60" as="geometry" />
        </mxCell>
        <mxCell id="HpH3oTEGi0dOJ8DHY_Ye-2" value="Env..&amp;nbsp;&lt;br&gt;Firebase connection&amp;nbsp;&lt;br&gt;back end connection&amp;nbsp;" style="rounded=0;whiteSpace=wrap;html=1;" parent="WIyWlLk6GJQsqaUBKTNV-1" vertex="1">
          <mxGeometry x="460" y="320" width="120" height="60" as="geometry" />
        </mxCell>
        <mxCell id="HpH3oTEGi0dOJ8DHY_Ye-4" value="app signing&amp;nbsp;" style="rounded=0;whiteSpace=wrap;html=1;" parent="WIyWlLk6GJQsqaUBKTNV-1" vertex="1">
          <mxGeometry x="260" y="80" width="120" height="60" as="geometry" />
        </mxCell>
        <mxCell id="HpH3oTEGi0dOJ8DHY_Ye-5" value="only two branches&amp;nbsp;" style="rounded=0;whiteSpace=wrap;html=1;" parent="WIyWlLk6GJQsqaUBKTNV-1" vertex="1">
          <mxGeometry x="40" y="80" width="120" height="60" as="geometry" />
        </mxCell>
        <mxCell id="HpH3oTEGi0dOJ8DHY_Ye-6" value="testing&amp;nbsp;&lt;br&gt;production&amp;nbsp;" style="rounded=0;whiteSpace=wrap;html=1;" parent="WIyWlLk6GJQsqaUBKTNV-1" vertex="1">
          <mxGeometry x="40" y="160" width="120" height="60" as="geometry" />
        </mxCell>
        <mxCell id="HpH3oTEGi0dOJ8DHY_Ye-7" value="merge time&amp;nbsp;&lt;br&gt;between all feat/bug fix to base branch&amp;nbsp;" style="rounded=0;whiteSpace=wrap;html=1;" parent="WIyWlLk6GJQsqaUBKTNV-1" vertex="1">
          <mxGeometry x="40" y="240" width="120" height="60" as="geometry" />
        </mxCell>
        <mxCell id="HpH3oTEGi0dOJ8DHY_Ye-8" value="merge between testing &amp;amp;&amp;amp;master branch" style="rounded=0;whiteSpace=wrap;html=1;" parent="WIyWlLk6GJQsqaUBKTNV-1" vertex="1">
          <mxGeometry x="40" y="320" width="120" height="60" as="geometry" />
        </mxCell>
        <mxCell id="HpH3oTEGi0dOJ8DHY_Ye-13" value="" style="shape=link;html=1;rounded=0;exitX=1;exitY=0.4;exitDx=0;exitDy=0;exitPerimeter=0;" parent="WIyWlLk6GJQsqaUBKTNV-1" source="HpH3oTEGi0dOJ8DHY_Ye-8" edge="1">
          <mxGeometry width="100" relative="1" as="geometry">
            <mxPoint x="360" y="320" as="sourcePoint" />
            <mxPoint x="460" y="340" as="targetPoint" />
          </mxGeometry>
        </mxCell>
        <mxCell id="HpH3oTEGi0dOJ8DHY_Ye-16" value="" style="edgeStyle=orthogonalEdgeStyle;rounded=0;orthogonalLoop=1;jettySize=auto;html=1;" parent="WIyWlLk6GJQsqaUBKTNV-1" source="HpH3oTEGi0dOJ8DHY_Ye-14" target="HpH3oTEGi0dOJ8DHY_Ye-15" edge="1">
          <mxGeometry relative="1" as="geometry" />
        </mxCell>
        <mxCell id="HpH3oTEGi0dOJ8DHY_Ye-14" value="change from testing to master making bug by default as&amp;nbsp;" style="rounded=0;whiteSpace=wrap;html=1;" parent="WIyWlLk6GJQsqaUBKTNV-1" vertex="1">
          <mxGeometry x="460" y="400" width="120" height="60" as="geometry" />
        </mxCell>
        <mxCell id="HpH3oTEGi0dOJ8DHY_Ye-20" value="" style="edgeStyle=orthogonalEdgeStyle;rounded=0;orthogonalLoop=1;jettySize=auto;html=1;" parent="WIyWlLk6GJQsqaUBKTNV-1" source="HpH3oTEGi0dOJ8DHY_Ye-15" target="HpH3oTEGi0dOJ8DHY_Ye-19" edge="1">
          <mxGeometry relative="1" as="geometry" />
        </mxCell>
        <mxCell id="HpH3oTEGi0dOJ8DHY_Ye-15" value="think in many solutions" style="whiteSpace=wrap;html=1;rounded=0;" parent="WIyWlLk6GJQsqaUBKTNV-1" vertex="1">
          <mxGeometry x="460" y="540" width="120" height="60" as="geometry" />
        </mxCell>
        <mxCell id="HpH3oTEGi0dOJ8DHY_Ye-24" value="" style="edgeStyle=orthogonalEdgeStyle;rounded=0;orthogonalLoop=1;jettySize=auto;html=1;" parent="WIyWlLk6GJQsqaUBKTNV-1" source="HpH3oTEGi0dOJ8DHY_Ye-19" target="HpH3oTEGi0dOJ8DHY_Ye-23" edge="1">
          <mxGeometry relative="1" as="geometry" />
        </mxCell>
        <mxCell id="HpH3oTEGi0dOJ8DHY_Ye-26" value="" style="edgeStyle=orthogonalEdgeStyle;rounded=0;orthogonalLoop=1;jettySize=auto;html=1;" parent="WIyWlLk6GJQsqaUBKTNV-1" source="HpH3oTEGi0dOJ8DHY_Ye-19" target="HpH3oTEGi0dOJ8DHY_Ye-25" edge="1">
          <mxGeometry relative="1" as="geometry" />
        </mxCell>
        <mxCell id="HpH3oTEGi0dOJ8DHY_Ye-19" value="make configurations once and then add files to git ignore&amp;nbsp;&lt;br&gt;" style="whiteSpace=wrap;html=1;rounded=0;" parent="WIyWlLk6GJQsqaUBKTNV-1" vertex="1">
          <mxGeometry x="460" y="680" width="120" height="60" as="geometry" />
        </mxCell>
        <mxCell id="HpH3oTEGi0dOJ8DHY_Ye-23" value="if we want to add new configurations in these files we needed to update it then add it to gitignore again&amp;nbsp;" style="whiteSpace=wrap;html=1;rounded=0;" parent="WIyWlLk6GJQsqaUBKTNV-1" vertex="1">
          <mxGeometry x="660" y="680" width="180" height="180" as="geometry" />
        </mxCell>
        <mxCell id="HpH3oTEGi0dOJ8DHY_Ye-28" value="" style="edgeStyle=orthogonalEdgeStyle;rounded=0;orthogonalLoop=1;jettySize=auto;html=1;" parent="WIyWlLk6GJQsqaUBKTNV-1" source="HpH3oTEGi0dOJ8DHY_Ye-25" target="HpH3oTEGi0dOJ8DHY_Ye-27" edge="1">
          <mxGeometry relative="1" as="geometry" />
        </mxCell>
        <mxCell id="HpH3oTEGi0dOJ8DHY_Ye-29" value="Text" style="edgeLabel;html=1;align=center;verticalAlign=middle;resizable=0;points=[];" parent="HpH3oTEGi0dOJ8DHY_Ye-28" vertex="1" connectable="0">
          <mxGeometry x="-0.7185" relative="1" as="geometry">
            <mxPoint as="offset" />
          </mxGeometry>
        </mxCell>
        <mxCell id="HpH3oTEGi0dOJ8DHY_Ye-30" value="" style="edgeStyle=orthogonalEdgeStyle;rounded=0;orthogonalLoop=1;jettySize=auto;html=1;" parent="WIyWlLk6GJQsqaUBKTNV-1" source="HpH3oTEGi0dOJ8DHY_Ye-25" target="HpH3oTEGi0dOJ8DHY_Ye-27" edge="1">
          <mxGeometry relative="1" as="geometry" />
        </mxCell>
        <mxCell id="HpH3oTEGi0dOJ8DHY_Ye-31" value="" style="edgeStyle=orthogonalEdgeStyle;rounded=0;orthogonalLoop=1;jettySize=auto;html=1;" parent="WIyWlLk6GJQsqaUBKTNV-1" source="HpH3oTEGi0dOJ8DHY_Ye-25" target="HpH3oTEGi0dOJ8DHY_Ye-27" edge="1">
          <mxGeometry relative="1" as="geometry" />
        </mxCell>
        <mxCell id="HpH3oTEGi0dOJ8DHY_Ye-32" value="" style="edgeStyle=orthogonalEdgeStyle;rounded=0;orthogonalLoop=1;jettySize=auto;html=1;" parent="WIyWlLk6GJQsqaUBKTNV-1" source="HpH3oTEGi0dOJ8DHY_Ye-25" target="HpH3oTEGi0dOJ8DHY_Ye-27" edge="1">
          <mxGeometry relative="1" as="geometry" />
        </mxCell>
        <mxCell id="HpH3oTEGi0dOJ8DHY_Ye-33" value="" style="edgeStyle=orthogonalEdgeStyle;rounded=0;orthogonalLoop=1;jettySize=auto;html=1;" parent="WIyWlLk6GJQsqaUBKTNV-1" source="HpH3oTEGi0dOJ8DHY_Ye-25" target="HpH3oTEGi0dOJ8DHY_Ye-27" edge="1">
          <mxGeometry relative="1" as="geometry" />
        </mxCell>
        <mxCell id="HpH3oTEGi0dOJ8DHY_Ye-25" value="add flavors for flutter&amp;nbsp;" style="whiteSpace=wrap;html=1;rounded=0;" parent="WIyWlLk6GJQsqaUBKTNV-1" vertex="1">
          <mxGeometry x="110" y="670" width="270" height="160" as="geometry" />
        </mxCell>
        <mxCell id="HpH3oTEGi0dOJ8DHY_Ye-27" value="testing app" style="whiteSpace=wrap;html=1;rounded=0;" parent="WIyWlLk6GJQsqaUBKTNV-1" vertex="1">
          <mxGeometry x="-120" y="910" width="160" height="60" as="geometry" />
        </mxCell>
        <mxCell id="HpH3oTEGi0dOJ8DHY_Ye-40" value="" style="edgeStyle=orthogonalEdgeStyle;rounded=0;orthogonalLoop=1;jettySize=auto;html=1;" parent="WIyWlLk6GJQsqaUBKTNV-1" source="HpH3oTEGi0dOJ8DHY_Ye-37" target="HpH3oTEGi0dOJ8DHY_Ye-39" edge="1">
          <mxGeometry relative="1" as="geometry" />
        </mxCell>
        <mxCell id="HpH3oTEGi0dOJ8DHY_Ye-37" value="production app" style="rounded=0;whiteSpace=wrap;html=1;" parent="WIyWlLk6GJQsqaUBKTNV-1" vertex="1">
          <mxGeometry x="220" y="920" width="120" height="60" as="geometry" />
        </mxCell>
        <mxCell id="HpH3oTEGi0dOJ8DHY_Ye-38" value="" style="shape=link;html=1;rounded=0;" parent="WIyWlLk6GJQsqaUBKTNV-1" target="HpH3oTEGi0dOJ8DHY_Ye-37" edge="1">
          <mxGeometry width="100" relative="1" as="geometry">
            <mxPoint x="280" y="830" as="sourcePoint" />
            <mxPoint x="380" y="820" as="targetPoint" />
          </mxGeometry>
        </mxCell>
        <mxCell id="HpH3oTEGi0dOJ8DHY_Ye-42" value="" style="edgeStyle=orthogonalEdgeStyle;rounded=0;orthogonalLoop=1;jettySize=auto;html=1;" parent="WIyWlLk6GJQsqaUBKTNV-1" source="HpH3oTEGi0dOJ8DHY_Ye-39" target="HpH3oTEGi0dOJ8DHY_Ye-41" edge="1">
          <mxGeometry relative="1" as="geometry" />
        </mxCell>
        <mxCell id="HpH3oTEGi0dOJ8DHY_Ye-39" value="build signed apk&amp;nbsp;" style="rounded=0;whiteSpace=wrap;html=1;" parent="WIyWlLk6GJQsqaUBKTNV-1" vertex="1">
          <mxGeometry x="220" y="1030" width="120" height="60" as="geometry" />
        </mxCell>
        <mxCell id="HpH3oTEGi0dOJ8DHY_Ye-44" value="" style="edgeStyle=orthogonalEdgeStyle;rounded=0;orthogonalLoop=1;jettySize=auto;html=1;" parent="WIyWlLk6GJQsqaUBKTNV-1" source="HpH3oTEGi0dOJ8DHY_Ye-41" target="HpH3oTEGi0dOJ8DHY_Ye-43" edge="1">
          <mxGeometry relative="1" as="geometry" />
        </mxCell>
        <mxCell id="HpH3oTEGi0dOJ8DHY_Ye-48" value="" style="edgeStyle=orthogonalEdgeStyle;rounded=0;orthogonalLoop=1;jettySize=auto;html=1;" parent="WIyWlLk6GJQsqaUBKTNV-1" source="HpH3oTEGi0dOJ8DHY_Ye-41" target="HpH3oTEGi0dOJ8DHY_Ye-47" edge="1">
          <mxGeometry relative="1" as="geometry" />
        </mxCell>
        <mxCell id="HpH3oTEGi0dOJ8DHY_Ye-41" value="update master&amp;nbsp;" style="whiteSpace=wrap;html=1;rounded=0;" parent="WIyWlLk6GJQsqaUBKTNV-1" vertex="1">
          <mxGeometry x="420" y="1030" width="120" height="60" as="geometry" />
        </mxCell>
        <mxCell id="HpH3oTEGi0dOJ8DHY_Ye-46" value="" style="edgeStyle=orthogonalEdgeStyle;rounded=0;orthogonalLoop=1;jettySize=auto;html=1;" parent="WIyWlLk6GJQsqaUBKTNV-1" source="HpH3oTEGi0dOJ8DHY_Ye-43" target="HpH3oTEGi0dOJ8DHY_Ye-45" edge="1">
          <mxGeometry relative="1" as="geometry" />
        </mxCell>
        <mxCell id="HpH3oTEGi0dOJ8DHY_Ye-43" value="switch to eng khaled to build signed apk&amp;nbsp;" style="whiteSpace=wrap;html=1;rounded=0;" parent="WIyWlLk6GJQsqaUBKTNV-1" vertex="1">
          <mxGeometry x="420" y="1170" width="120" height="60" as="geometry" />
        </mxCell>
        <mxCell id="HpH3oTEGi0dOJ8DHY_Ye-45" value="build aab and submit to play store&amp;nbsp;" style="whiteSpace=wrap;html=1;rounded=0;" parent="WIyWlLk6GJQsqaUBKTNV-1" vertex="1">
          <mxGeometry x="420" y="1310" width="120" height="60" as="geometry" />
        </mxCell>
        <mxCell id="HpH3oTEGi0dOJ8DHY_Ye-50" value="" style="edgeStyle=orthogonalEdgeStyle;rounded=0;orthogonalLoop=1;jettySize=auto;html=1;" parent="WIyWlLk6GJQsqaUBKTNV-1" source="HpH3oTEGi0dOJ8DHY_Ye-47" target="HpH3oTEGi0dOJ8DHY_Ye-49" edge="1">
          <mxGeometry relative="1" as="geometry" />
        </mxCell>
        <mxCell id="HpH3oTEGi0dOJ8DHY_Ye-47" value="use github actions to&lt;br&gt;&amp;nbsp;build" style="whiteSpace=wrap;html=1;rounded=0;" parent="WIyWlLk6GJQsqaUBKTNV-1" vertex="1">
          <mxGeometry x="620" y="1030" width="120" height="60" as="geometry" />
        </mxCell>
        <mxCell id="HpH3oTEGi0dOJ8DHY_Ye-52" value="" style="edgeStyle=orthogonalEdgeStyle;rounded=0;orthogonalLoop=1;jettySize=auto;html=1;" parent="WIyWlLk6GJQsqaUBKTNV-1" source="HpH3oTEGi0dOJ8DHY_Ye-49" target="HpH3oTEGi0dOJ8DHY_Ye-51" edge="1">
          <mxGeometry relative="1" as="geometry" />
        </mxCell>
        <mxCell id="HpH3oTEGi0dOJ8DHY_Ye-49" value="signing&amp;nbsp;" style="whiteSpace=wrap;html=1;rounded=0;" parent="WIyWlLk6GJQsqaUBKTNV-1" vertex="1">
          <mxGeometry x="620" y="1170" width="120" height="60" as="geometry" />
        </mxCell>
        <mxCell id="HpH3oTEGi0dOJ8DHY_Ye-54" value="" style="edgeStyle=orthogonalEdgeStyle;rounded=0;orthogonalLoop=1;jettySize=auto;html=1;" parent="WIyWlLk6GJQsqaUBKTNV-1" source="HpH3oTEGi0dOJ8DHY_Ye-51" target="HpH3oTEGi0dOJ8DHY_Ye-53" edge="1">
          <mxGeometry relative="1" as="geometry" />
        </mxCell>
        <mxCell id="HpH3oTEGi0dOJ8DHY_Ye-51" value="add jks file in secrets of repo and make&amp;nbsp;" style="whiteSpace=wrap;html=1;rounded=0;" parent="WIyWlLk6GJQsqaUBKTNV-1" vertex="1">
          <mxGeometry x="620" y="1310" width="120" height="60" as="geometry" />
        </mxCell>
        <mxCell id="HpH3oTEGi0dOJ8DHY_Ye-56" value="" style="edgeStyle=orthogonalEdgeStyle;rounded=0;orthogonalLoop=1;jettySize=auto;html=1;" parent="WIyWlLk6GJQsqaUBKTNV-1" source="HpH3oTEGi0dOJ8DHY_Ye-53" target="HpH3oTEGi0dOJ8DHY_Ye-55" edge="1">
          <mxGeometry relative="1" as="geometry" />
        </mxCell>
        <mxCell id="HpH3oTEGi0dOJ8DHY_Ye-58" value="" style="edgeStyle=orthogonalEdgeStyle;rounded=0;orthogonalLoop=1;jettySize=auto;html=1;" parent="WIyWlLk6GJQsqaUBKTNV-1" source="HpH3oTEGi0dOJ8DHY_Ye-53" target="HpH3oTEGi0dOJ8DHY_Ye-57" edge="1">
          <mxGeometry relative="1" as="geometry" />
        </mxCell>
        <mxCell id="HpH3oTEGi0dOJ8DHY_Ye-53" value="use gradle to build signed aab&amp;nbsp;" style="whiteSpace=wrap;html=1;rounded=0;" parent="WIyWlLk6GJQsqaUBKTNV-1" vertex="1">
          <mxGeometry x="620" y="1450" width="120" height="60" as="geometry" />
        </mxCell>
        <mxCell id="HpH3oTEGi0dOJ8DHY_Ye-55" value="we have signed aab&amp;nbsp;" style="rounded=0;whiteSpace=wrap;html=1;" parent="WIyWlLk6GJQsqaUBKTNV-1" vertex="1">
          <mxGeometry x="620" y="1590" width="120" height="60" as="geometry" />
        </mxCell>
        <mxCell id="HpH3oTEGi0dOJ8DHY_Ye-60" value="" style="edgeStyle=orthogonalEdgeStyle;rounded=0;orthogonalLoop=1;jettySize=auto;html=1;" parent="WIyWlLk6GJQsqaUBKTNV-1" source="HpH3oTEGi0dOJ8DHY_Ye-57" target="HpH3oTEGi0dOJ8DHY_Ye-59" edge="1">
          <mxGeometry relative="1" as="geometry" />
        </mxCell>
        <mxCell id="HpH3oTEGi0dOJ8DHY_Ye-57" value="version&amp;nbsp;" style="whiteSpace=wrap;html=1;rounded=0;" parent="WIyWlLk6GJQsqaUBKTNV-1" vertex="1">
          <mxGeometry x="820" y="1450" width="120" height="60" as="geometry" />
        </mxCell>
        <mxCell id="HpH3oTEGi0dOJ8DHY_Ye-59" value="read version code and version number from 3rd party" style="whiteSpace=wrap;html=1;rounded=0;" parent="WIyWlLk6GJQsqaUBKTNV-1" vertex="1">
          <mxGeometry x="820" y="1590" width="120" height="60" as="geometry" />
        </mxCell>
      </root>
    </mxGraphModel>
  </diagram>
</mxfile>
